solid OpenSCAD_Model
  facet normal -1.000000 0.000000 0.000000
    outer loop
      vertex -50.000000 -25.000000 -25.000000
      vertex -50.000000 25.000000 -25.000000
      vertex -50.000000 50.000000 -50.000000
    endloop
  endfacet
  facet normal -1.000000 0.000000 -0.000000
    outer loop
      vertex -50.000000 -25.000000 25.000000
      vertex -50.000000 -50.000000 50.000000
      vertex -50.000000 50.000000 50.000000
    endloop
  endfacet
  facet normal -1.000000 0.000000 -0.000000
    outer loop
      vertex -50.000000 -50.000000 -50.000000
      vertex -50.000000 -50.000000 50.000000
      vertex -50.000000 -25.000000 25.000000
    endloop
  endfacet
  facet normal -1.000000 0.000000 -0.000000
    outer loop
      vertex -50.000000 25.000000 25.000000
      vertex -50.000000 -25.000000 25.000000
      vertex -50.000000 50.000000 50.000000
    endloop
  endfacet
  facet normal -1.000000 0.000000 0.000000
    outer loop
      vertex -50.000000 -50.000000 -50.000000
      vertex -50.000000 -25.000000 25.000000
      vertex -50.000000 -25.000000 -25.000000
    endloop
  endfacet
  facet normal -1.000000 -0.000000 0.000000
    outer loop
      vertex -50.000000 -50.000000 -50.000000
      vertex -50.000000 -25.000000 -25.000000
      vertex -50.000000 50.000000 -50.000000
    endloop
  endfacet
  facet normal -1.000000 0.000000 0.000000
    outer loop
      vertex -50.000000 50.000000 -50.000000
      vertex -50.000000 25.000000 -25.000000
      vertex -50.000000 50.000000 50.000000
    endloop
  endfacet
  facet normal -1.000000 0.000000 -0.000000
    outer loop
      vertex -50.000000 25.000000 -25.000000
      vertex -50.000000 25.000000 25.000000
      vertex -50.000000 50.000000 50.000000
    endloop
  endfacet
  facet normal 0.000000 -1.000000 0.000000
    outer loop
      vertex -25.000000 -50.000000 -25.000000
      vertex -50.000000 -50.000000 -50.000000
      vertex 50.000000 -50.000000 -50.000000
    endloop
  endfacet
  facet normal 0.000000 -1.000000 0.000000
    outer loop
      vertex -25.000000 -50.000000 25.000000
      vertex -50.000000 -50.000000 50.000000
      vertex -25.000000 -50.000000 -25.000000
    endloop
  endfacet
  facet normal 0.000000 -1.000000 0.000000
    outer loop
      vertex 25.000000 -50.000000 -25.000000
      vertex -25.000000 -50.000000 -25.000000
      vertex 50.000000 -50.000000 -50.000000
    endloop
  endfacet
  facet normal 0.000000 -1.000000 0.000000
    outer loop
      vertex -50.000000 -50.000000 50.000000
      vertex -50.000000 -50.000000 -50.000000
      vertex -25.000000 -50.000000 -25.000000
    endloop
  endfacet
  facet normal 0.000000 -1.000000 0.000000
    outer loop
      vertex 50.000000 -50.000000 50.000000
      vertex -50.000000 -50.000000 50.000000
      vertex -25.000000 -50.000000 25.000000
    endloop
  endfacet
  facet normal 0.000000 -1.000000 0.000000
    outer loop
      vertex 50.000000 -50.000000 50.000000
      vertex 25.000000 -50.000000 25.000000
      vertex 50.000000 -50.000000 -50.000000
    endloop
  endfacet
  facet normal 0.000000 -1.000000 0.000000
    outer loop
      vertex 50.000000 -50.000000 50.000000
      vertex -25.000000 -50.000000 25.000000
      vertex 25.000000 -50.000000 25.000000
    endloop
  endfacet
  facet normal 0.000000 -1.000000 0.000000
    outer loop
      vertex 25.000000 -50.000000 25.000000
      vertex 25.000000 -50.000000 -25.000000
      vertex 50.000000 -50.000000 -50.000000
    endloop
  endfacet
  facet normal 0.000000 0.000000 -1.000000
    outer loop
      vertex -25.000000 -25.000000 -50.000000
      vertex 25.000000 -25.000000 -50.000000
      vertex 50.000000 -50.000000 -50.000000
    endloop
  endfacet
  facet normal 0.000000 -0.000000 -1.000000
    outer loop
      vertex -25.000000 25.000000 -50.000000
      vertex -50.000000 50.000000 -50.000000
      vertex 50.000000 50.000000 -50.000000
    endloop
  endfacet
  facet normal 0.000000 -0.000000 -1.000000
    outer loop
      vertex -50.000000 -50.000000 -50.000000
      vertex -50.000000 50.000000 -50.000000
      vertex -25.000000 25.000000 -50.000000
    endloop
  endfacet
  facet normal 0.000000 -0.000000 -1.000000
    outer loop
      vertex 25.000000 25.000000 -50.000000
      vertex -25.000000 25.000000 -50.000000
      vertex 50.000000 50.000000 -50.000000
    endloop
  endfacet
  facet normal 0.000000 0.000000 -1.000000
    outer loop
      vertex -50.000000 -50.000000 -50.000000
      vertex -25.000000 25.000000 -50.000000
      vertex -25.000000 -25.000000 -50.000000
    endloop
  endfacet
  facet normal -0.000000 0.000000 -1.000000
    outer loop
      vertex -50.000000 -50.000000 -50.000000
      vertex -25.000000 -25.000000 -50.000000
      vertex 50.000000 -50.000000 -50.000000
    endloop
  endfacet
  facet normal 0.000000 0.000000 -1.000000
    outer loop
      vertex 50.000000 -50.000000 -50.000000
      vertex 25.000000 -25.000000 -50.000000
      vertex 50.000000 50.000000 -50.000000
    endloop
  endfacet
  facet normal 0.000000 -0.000000 -1.000000
    outer loop
      vertex 25.000000 -25.000000 -50.000000
      vertex 25.000000 25.000000 -50.000000
      vertex 50.000000 50.000000 -50.000000
    endloop
  endfacet
  facet normal 0.000000 1.000000 0.000000
    outer loop
      vertex -25.000000 50.000000 -25.000000
      vertex 25.000000 50.000000 -25.000000
      vertex 50.000000 50.000000 -50.000000
    endloop
  endfacet
  facet normal 0.000000 1.000000 0.000000
    outer loop
      vertex -25.000000 50.000000 25.000000
      vertex -50.000000 50.000000 50.000000
      vertex 50.000000 50.000000 50.000000
    endloop
  endfacet
  facet normal 0.000000 1.000000 0.000000
    outer loop
      vertex -50.000000 50.000000 -50.000000
      vertex -50.000000 50.000000 50.000000
      vertex -25.000000 50.000000 25.000000
    endloop
  endfacet
  facet normal -0.000000 1.000000 0.000000
    outer loop
      vertex 25.000000 50.000000 25.000000
      vertex -25.000000 50.000000 25.000000
      vertex 50.000000 50.000000 50.000000
    endloop
  endfacet
  facet normal 0.000000 1.000000 0.000000
    outer loop
      vertex -50.000000 50.000000 -50.000000
      vertex -25.000000 50.000000 25.000000
      vertex -25.000000 50.000000 -25.000000
    endloop
  endfacet
  facet normal 0.000000 1.000000 0.000000
    outer loop
      vertex -50.000000 50.000000 -50.000000
      vertex -25.000000 50.000000 -25.000000
      vertex 50.000000 50.000000 -50.000000
    endloop
  endfacet
  facet normal 0.000000 1.000000 0.000000
    outer loop
      vertex 50.000000 50.000000 -50.000000
      vertex 25.000000 50.000000 -25.000000
      vertex 50.000000 50.000000 50.000000
    endloop
  endfacet
  facet normal 0.000000 1.000000 0.000000
    outer loop
      vertex 25.000000 50.000000 -25.000000
      vertex 25.000000 50.000000 25.000000
      vertex 50.000000 50.000000 50.000000
    endloop
  endfacet
  facet normal 0.000000 -0.000000 1.000000
    outer loop
      vertex -25.000000 -25.000000 50.000000
      vertex -50.000000 -50.000000 50.000000
      vertex 50.000000 -50.000000 50.000000
    endloop
  endfacet
  facet normal -0.000000 0.000000 1.000000
    outer loop
      vertex -25.000000 25.000000 50.000000
      vertex -50.000000 50.000000 50.000000
      vertex -25.000000 -25.000000 50.000000
    endloop
  endfacet
  facet normal 0.000000 -0.000000 1.000000
    outer loop
      vertex 25.000000 -25.000000 50.000000
      vertex -25.000000 -25.000000 50.000000
      vertex 50.000000 -50.000000 50.000000
    endloop
  endfacet
  facet normal 0.000000 -0.000000 1.000000
    outer loop
      vertex -50.000000 50.000000 50.000000
      vertex -50.000000 -50.000000 50.000000
      vertex -25.000000 -25.000000 50.000000
    endloop
  endfacet
  facet normal 0.000000 0.000000 1.000000
    outer loop
      vertex 50.000000 50.000000 50.000000
      vertex -50.000000 50.000000 50.000000
      vertex -25.000000 25.000000 50.000000
    endloop
  endfacet
  facet normal 0.000000 0.000000 1.000000
    outer loop
      vertex 50.000000 50.000000 50.000000
      vertex 25.000000 25.000000 50.000000
      vertex 50.000000 -50.000000 50.000000
    endloop
  endfacet
  facet normal 0.000000 0.000000 1.000000
    outer loop
      vertex 50.000000 50.000000 50.000000
      vertex -25.000000 25.000000 50.000000
      vertex 25.000000 25.000000 50.000000
    endloop
  endfacet
  facet normal 0.000000 -0.000000 1.000000
    outer loop
      vertex 25.000000 25.000000 50.000000
      vertex 25.000000 -25.000000 50.000000
      vertex 50.000000 -50.000000 50.000000
    endloop
  endfacet
  facet normal 0.000000 1.000000 0.000000
    outer loop
      vertex -25.000000 -25.000000 25.000000
      vertex -25.000000 -25.000000 -25.000000
      vertex -50.000000 -25.000000 25.000000
    endloop
  endfacet
  facet normal 0.000000 1.000000 -0.000000
    outer loop
      vertex -50.000000 -25.000000 25.000000
      vertex -25.000000 -25.000000 -25.000000
      vertex -50.000000 -25.000000 -25.000000
    endloop
  endfacet
  facet normal 0.000000 0.000000 -1.000000
    outer loop
      vertex -25.000000 25.000000 25.000000
      vertex -25.000000 -25.000000 25.000000
      vertex -50.000000 25.000000 25.000000
    endloop
  endfacet
  facet normal 0.000000 0.000000 -1.000000
    outer loop
      vertex -50.000000 25.000000 25.000000
      vertex -25.000000 -25.000000 25.000000
      vertex -50.000000 -25.000000 25.000000
    endloop
  endfacet
  facet normal 0.000000 -1.000000 0.000000
    outer loop
      vertex -25.000000 25.000000 -25.000000
      vertex -25.000000 25.000000 25.000000
      vertex -50.000000 25.000000 25.000000
    endloop
  endfacet
  facet normal -0.000000 -1.000000 -0.000000
    outer loop
      vertex -50.000000 25.000000 -25.000000
      vertex -25.000000 25.000000 -25.000000
      vertex -50.000000 25.000000 25.000000
    endloop
  endfacet
  facet normal 0.000000 0.000000 1.000000
    outer loop
      vertex -25.000000 -25.000000 -25.000000
      vertex -25.000000 25.000000 -25.000000
      vertex -50.000000 25.000000 -25.000000
    endloop
  endfacet
  facet normal 0.000000 0.000000 1.000000
    outer loop
      vertex -50.000000 -25.000000 -25.000000
      vertex -25.000000 -25.000000 -25.000000
      vertex -50.000000 25.000000 -25.000000
    endloop
  endfacet
  facet normal 1.000000 0.000000 -0.000000
    outer loop
      vertex 50.000000 -25.000000 -25.000000
      vertex 50.000000 -50.000000 -50.000000
      vertex 50.000000 50.000000 -50.000000
    endloop
  endfacet
  facet normal 1.000000 -0.000000 0.000000
    outer loop
      vertex 50.000000 -25.000000 25.000000
      vertex 50.000000 -50.000000 50.000000
      vertex 50.000000 -25.000000 -25.000000
    endloop
  endfacet
  facet normal 1.000000 0.000000 -0.000000
    outer loop
      vertex 50.000000 25.000000 -25.000000
      vertex 50.000000 -25.000000 -25.000000
      vertex 50.000000 50.000000 -50.000000
    endloop
  endfacet
  facet normal 1.000000 0.000000 -0.000000
    outer loop
      vertex 50.000000 -50.000000 50.000000
      vertex 50.000000 -50.000000 -50.000000
      vertex 50.000000 -25.000000 -25.000000
    endloop
  endfacet
  facet normal 1.000000 0.000000 0.000000
    outer loop
      vertex 50.000000 50.000000 50.000000
      vertex 50.000000 -50.000000 50.000000
      vertex 50.000000 -25.000000 25.000000
    endloop
  endfacet
  facet normal 1.000000 0.000000 0.000000
    outer loop
      vertex 50.000000 50.000000 50.000000
      vertex 50.000000 25.000000 25.000000
      vertex 50.000000 50.000000 -50.000000
    endloop
  endfacet
  facet normal 1.000000 0.000000 0.000000
    outer loop
      vertex 50.000000 50.000000 50.000000
      vertex 50.000000 -25.000000 25.000000
      vertex 50.000000 25.000000 25.000000
    endloop
  endfacet
  facet normal 1.000000 0.000000 -0.000000
    outer loop
      vertex 50.000000 25.000000 25.000000
      vertex 50.000000 25.000000 -25.000000
      vertex 50.000000 50.000000 -50.000000
    endloop
  endfacet
  facet normal 1.000000 0.000000 0.000000
    outer loop
      vertex -25.000000 -25.000000 -25.000000
      vertex -25.000000 -25.000000 25.000000
      vertex -25.000000 -50.000000 25.000000
    endloop
  endfacet
  facet normal 1.000000 0.000000 0.000000
    outer loop
      vertex -25.000000 -50.000000 -25.000000
      vertex -25.000000 -25.000000 -25.000000
      vertex -25.000000 -50.000000 25.000000
    endloop
  endfacet
  facet normal 0.000000 0.000000 1.000000
    outer loop
      vertex 25.000000 -50.000000 -25.000000
      vertex 25.000000 -25.000000 -25.000000
      vertex -25.000000 -25.000000 -25.000000
    endloop
  endfacet
  facet normal 0.000000 0.000000 1.000000
    outer loop
      vertex -25.000000 -50.000000 -25.000000
      vertex 25.000000 -50.000000 -25.000000
      vertex -25.000000 -25.000000 -25.000000
    endloop
  endfacet
  facet normal -1.000000 0.000000 0.000000
    outer loop
      vertex 25.000000 -25.000000 25.000000
      vertex 25.000000 -25.000000 -25.000000
      vertex 25.000000 -50.000000 25.000000
    endloop
  endfacet
  facet normal -1.000000 0.000000 0.000000
    outer loop
      vertex 25.000000 -50.000000 25.000000
      vertex 25.000000 -25.000000 -25.000000
      vertex 25.000000 -50.000000 -25.000000
    endloop
  endfacet
  facet normal 0.000000 0.000000 -1.000000
    outer loop
      vertex 25.000000 -25.000000 25.000000
      vertex 25.000000 -50.000000 25.000000
      vertex -25.000000 -25.000000 25.000000
    endloop
  endfacet
  facet normal 0.000000 0.000000 -1.000000
    outer loop
      vertex -25.000000 -25.000000 25.000000
      vertex 25.000000 -50.000000 25.000000
      vertex -25.000000 -50.000000 25.000000
    endloop
  endfacet
  facet normal 1.000000 0.000000 0.000000
    outer loop
      vertex -25.000000 25.000000 -50.000000
      vertex -25.000000 25.000000 -25.000000
      vertex -25.000000 -25.000000 -25.000000
    endloop
  endfacet
  facet normal 1.000000 0.000000 0.000000
    outer loop
      vertex -25.000000 -25.000000 -50.000000
      vertex -25.000000 25.000000 -50.000000
      vertex -25.000000 -25.000000 -25.000000
    endloop
  endfacet
  facet normal 0.000000 -1.000000 0.000000
    outer loop
      vertex 25.000000 25.000000 -50.000000
      vertex 25.000000 25.000000 -25.000000
      vertex -25.000000 25.000000 -25.000000
    endloop
  endfacet
  facet normal -0.000000 -1.000000 -0.000000
    outer loop
      vertex -25.000000 25.000000 -50.000000
      vertex 25.000000 25.000000 -50.000000
      vertex -25.000000 25.000000 -25.000000
    endloop
  endfacet
  facet normal -1.000000 0.000000 0.000000
    outer loop
      vertex 25.000000 25.000000 -25.000000
      vertex 25.000000 25.000000 -50.000000
      vertex 25.000000 -25.000000 -25.000000
    endloop
  endfacet
  facet normal -1.000000 0.000000 0.000000
    outer loop
      vertex 25.000000 -25.000000 -25.000000
      vertex 25.000000 25.000000 -50.000000
      vertex 25.000000 -25.000000 -50.000000
    endloop
  endfacet
  facet normal 0.000000 1.000000 0.000000
    outer loop
      vertex 25.000000 -25.000000 -25.000000
      vertex 25.000000 -25.000000 -50.000000
      vertex -25.000000 -25.000000 -25.000000
    endloop
  endfacet
  facet normal 0.000000 1.000000 -0.000000
    outer loop
      vertex -25.000000 -25.000000 -25.000000
      vertex 25.000000 -25.000000 -50.000000
      vertex -25.000000 -25.000000 -50.000000
    endloop
  endfacet
  facet normal 1.000000 0.000000 0.000000
    outer loop
      vertex -25.000000 50.000000 -25.000000
      vertex -25.000000 50.000000 25.000000
      vertex -25.000000 25.000000 25.000000
    endloop
  endfacet
  facet normal 1.000000 0.000000 0.000000
    outer loop
      vertex -25.000000 25.000000 -25.000000
      vertex -25.000000 50.000000 -25.000000
      vertex -25.000000 25.000000 25.000000
    endloop
  endfacet
  facet normal 0.000000 0.000000 -1.000000
    outer loop
      vertex 25.000000 50.000000 25.000000
      vertex 25.000000 25.000000 25.000000
      vertex -25.000000 50.000000 25.000000
    endloop
  endfacet
  facet normal 0.000000 0.000000 -1.000000
    outer loop
      vertex -25.000000 50.000000 25.000000
      vertex 25.000000 25.000000 25.000000
      vertex -25.000000 25.000000 25.000000
    endloop
  endfacet
  facet normal -1.000000 0.000000 0.000000
    outer loop
      vertex 25.000000 50.000000 25.000000
      vertex 25.000000 50.000000 -25.000000
      vertex 25.000000 25.000000 25.000000
    endloop
  endfacet
  facet normal -1.000000 0.000000 0.000000
    outer loop
      vertex 25.000000 25.000000 25.000000
      vertex 25.000000 50.000000 -25.000000
      vertex 25.000000 25.000000 -25.000000
    endloop
  endfacet
  facet normal 0.000000 0.000000 1.000000
    outer loop
      vertex 25.000000 25.000000 -25.000000
      vertex 25.000000 50.000000 -25.000000
      vertex -25.000000 50.000000 -25.000000
    endloop
  endfacet
  facet normal 0.000000 0.000000 1.000000
    outer loop
      vertex -25.000000 25.000000 -25.000000
      vertex 25.000000 25.000000 -25.000000
      vertex -25.000000 50.000000 -25.000000
    endloop
  endfacet
  facet normal 1.000000 0.000000 0.000000
    outer loop
      vertex -25.000000 25.000000 25.000000
      vertex -25.000000 25.000000 50.000000
      vertex -25.000000 -25.000000 50.000000
    endloop
  endfacet
  facet normal 1.000000 0.000000 0.000000
    outer loop
      vertex -25.000000 -25.000000 25.000000
      vertex -25.000000 25.000000 25.000000
      vertex -25.000000 -25.000000 50.000000
    endloop
  endfacet
  facet normal 0.000000 1.000000 0.000000
    outer loop
      vertex 25.000000 -25.000000 50.000000
      vertex 25.000000 -25.000000 25.000000
      vertex -25.000000 -25.000000 50.000000
    endloop
  endfacet
  facet normal 0.000000 1.000000 -0.000000
    outer loop
      vertex -25.000000 -25.000000 50.000000
      vertex 25.000000 -25.000000 25.000000
      vertex -25.000000 -25.000000 25.000000
    endloop
  endfacet
  facet normal -1.000000 0.000000 0.000000
    outer loop
      vertex 25.000000 25.000000 50.000000
      vertex 25.000000 25.000000 25.000000
      vertex 25.000000 -25.000000 50.000000
    endloop
  endfacet
  facet normal -1.000000 0.000000 0.000000
    outer loop
      vertex 25.000000 -25.000000 50.000000
      vertex 25.000000 25.000000 25.000000
      vertex 25.000000 -25.000000 25.000000
    endloop
  endfacet
  facet normal 0.000000 -1.000000 0.000000
    outer loop
      vertex 25.000000 25.000000 25.000000
      vertex 25.000000 25.000000 50.000000
      vertex -25.000000 25.000000 50.000000
    endloop
  endfacet
  facet normal -0.000000 -1.000000 -0.000000
    outer loop
      vertex -25.000000 25.000000 25.000000
      vertex 25.000000 25.000000 25.000000
      vertex -25.000000 25.000000 50.000000
    endloop
  endfacet
  facet normal 0.000000 0.000000 1.000000
    outer loop
      vertex 50.000000 -25.000000 -25.000000
      vertex 50.000000 25.000000 -25.000000
      vertex 25.000000 25.000000 -25.000000
    endloop
  endfacet
  facet normal 0.000000 0.000000 1.000000
    outer loop
      vertex 25.000000 -25.000000 -25.000000
      vertex 50.000000 -25.000000 -25.000000
      vertex 25.000000 25.000000 -25.000000
    endloop
  endfacet
  facet normal 0.000000 1.000000 0.000000
    outer loop
      vertex 50.000000 -25.000000 25.000000
      vertex 50.000000 -25.000000 -25.000000
      vertex 25.000000 -25.000000 25.000000
    endloop
  endfacet
  facet normal 0.000000 1.000000 -0.000000
    outer loop
      vertex 25.000000 -25.000000 25.000000
      vertex 50.000000 -25.000000 -25.000000
      vertex 25.000000 -25.000000 -25.000000
    endloop
  endfacet
  facet normal 0.000000 -1.000000 0.000000
    outer loop
      vertex 50.000000 25.000000 -25.000000
      vertex 50.000000 25.000000 25.000000
      vertex 25.000000 25.000000 25.000000
    endloop
  endfacet
  facet normal -0.000000 -1.000000 -0.000000
    outer loop
      vertex 25.000000 25.000000 -25.000000
      vertex 50.000000 25.000000 -25.000000
      vertex 25.000000 25.000000 25.000000
    endloop
  endfacet
  facet normal 0.000000 0.000000 -1.000000
    outer loop
      vertex 50.000000 25.000000 25.000000
      vertex 50.000000 -25.000000 25.000000
      vertex 25.000000 25.000000 25.000000
    endloop
  endfacet
  facet normal 0.000000 0.000000 -1.000000
    outer loop
      vertex 25.000000 25.000000 25.000000
      vertex 50.000000 -25.000000 25.000000
      vertex 25.000000 -25.000000 25.000000
    endloop
  endfacet
endsolid OpenSCAD_Model
