solid OpenSCAD_Model
  facet normal -1.000000 0.000000 0.000000
    outer loop
      vertex -110.000000 -77.500000 5.000000
      vertex -110.000000 77.500000 5.000000
      vertex -110.000000 -77.500000 -5.000000
    endloop
  endfacet
  facet normal -1.000000 -0.000000 0.000000
    outer loop
      vertex -110.000000 -77.500000 -5.000000
      vertex -110.000000 77.500000 5.000000
      vertex -110.000000 77.500000 -5.000000
    endloop
  endfacet
  facet normal 0.000000 0.000000 1.000000
    outer loop
      vertex -110.000000 -77.500000 5.000000
      vertex 110.000000 -77.500000 5.000000
      vertex 110.000000 77.500000 5.000000
    endloop
  endfacet
  facet normal 0.000000 -0.000000 1.000000
    outer loop
      vertex -110.000000 77.500000 5.000000
      vertex -110.000000 -77.500000 5.000000
      vertex 110.000000 77.500000 5.000000
    endloop
  endfacet
  facet normal -0.000000 -1.000000 0.000000
    outer loop
      vertex -110.000000 -77.500000 -5.000000
      vertex 110.000000 -77.500000 -5.000000
      vertex 110.000000 -77.500000 5.000000
    endloop
  endfacet
  facet normal 0.000000 -1.000000 0.000000
    outer loop
      vertex -110.000000 -77.500000 5.000000
      vertex -110.000000 -77.500000 -5.000000
      vertex 110.000000 -77.500000 5.000000
    endloop
  endfacet
  facet normal 0.000000 0.000000 -1.000000
    outer loop
      vertex -110.000000 77.500000 -5.000000
      vertex 110.000000 77.500000 -5.000000
      vertex -110.000000 -77.500000 -5.000000
    endloop
  endfacet
  facet normal -0.000000 0.000000 -1.000000
    outer loop
      vertex -110.000000 -77.500000 -5.000000
      vertex 110.000000 77.500000 -5.000000
      vertex 110.000000 -77.500000 -5.000000
    endloop
  endfacet
  facet normal 0.000000 1.000000 -0.000000
    outer loop
      vertex -110.000000 77.500000 5.000000
      vertex 110.000000 77.500000 5.000000
      vertex -110.000000 77.500000 -5.000000
    endloop
  endfacet
  facet normal 0.000000 1.000000 0.000000
    outer loop
      vertex -110.000000 77.500000 -5.000000
      vertex 110.000000 77.500000 5.000000
      vertex 110.000000 77.500000 -5.000000
    endloop
  endfacet
  facet normal 1.000000 0.000000 0.000000
    outer loop
      vertex 110.000000 -77.500000 -5.000000
      vertex 110.000000 77.500000 -5.000000
      vertex 110.000000 77.500000 5.000000
    endloop
  endfacet
  facet normal 1.000000 0.000000 -0.000000
    outer loop
      vertex 110.000000 -77.500000 5.000000
      vertex 110.000000 -77.500000 -5.000000
      vertex 110.000000 77.500000 5.000000
    endloop
  endfacet
endsolid OpenSCAD_Model
